<?xml version="1.0" standalone="no"?>
<!DOCTYPE svg PUBLIC "-//W3C//DTD SVG 20010904//EN"
 "http://www.w3.org/TR/2001/REC-SVG-20010904/DTD/svg10.dtd">
<svg version="1.0" xmlns="http://www.w3.org/2000/svg"
 width="324.000000pt" height="105.000000pt" viewBox="0 0 324.000000 105.000000"
 preserveAspectRatio="xMidYMid meet">

<g transform="translate(0.000000,105.000000) scale(0.100000,-0.100000)"
fill="#000000" stroke="none">
<path d="M850 619 c0 -5 4 -8 9 -4 11 6 31 -25 31 -47 -1 -7 -6 -3 -14 10
l-12 23 -12 -23 -12 -23 5 25 c3 14 -15 -15 -39 -65 -40 -84 -42 -90 -23 -93
11 -2 29 1 41 7 12 5 32 12 46 14 17 3 13 5 -12 6 -21 0 -38 -3 -38 -9 0 -5
-9 -10 -20 -10 -23 0 -24 7 -7 35 19 31 107 29 125 -3 7 -12 17 -20 22 -17 6
4 10 1 10 -4 0 -19 -29 -12 -40 10 -9 16 -19 20 -57 17 -28 -2 -47 -8 -49 -16
-1 -7 0 -8 3 -2 2 5 24 10 48 10 35 0 45 -4 50 -20 4 -14 15 -20 35 -20 l29 0
-47 105 c-25 58 -52 105 -59 105 -7 0 -13 -5 -13 -11z m36 -84 c20 -48 17 -57
-5 -16 -18 33 -19 34 -26 12 -4 -12 -4 -25 -1 -28 3 -4 6 -1 6 6 0 7 5 9 10 6
18 -11 10 -25 -15 -25 -14 0 -25 2 -25 4 0 10 31 76 36 76 3 0 12 -16 20 -35z
m-56 -15 c-7 -17 -15 -28 -18 -26 -2 3 1 19 8 36 7 17 15 28 18 26 2 -3 -1
-19 -8 -36z m104 -50 c5 -18 1 -15 -12 10 -11 19 -22 46 -26 60 -5 18 -1 15
12 -10 11 -19 22 -46 26 -60z"/>
<path d="M1095 620 l60 -7 -57 -1 -58 -2 0 -95 0 -95 58 0 c77 1 122 38 122
104 0 69 -48 107 -132 104 l-53 -1 60 -7z m94 -36 c31 -39 28 -89 -8 -125 -25
-24 -37 -29 -80 -29 l-51 0 0 84 0 85 53 4 c28 2 55 4 59 5 4 1 16 -10 27 -24z"/>
<path d="M1154 592 c3 -5 -17 -7 -44 -4 l-50 5 2 -79 2 -79 3 73 4 72 33 0
c76 0 89 -90 16 -113 -8 -2 -2 -3 13 -1 17 2 26 0 22 -6 -3 -6 -19 -10 -35
-10 -29 0 -29 1 -33 63 l-3 62 -2 -67 -2 -68 34 0 c71 0 112 88 66 138 -21 22
-36 30 -26 14z m36 -67 c0 -12 -7 -30 -15 -41 -14 -18 -14 -17 -3 9 9 22 9 36
0 60 -10 29 -10 30 3 13 8 -11 15 -29 15 -41z"/>
<path d="M1330 627 c0 -4 7 -22 16 -38 8 -17 13 -33 10 -36 -2 -3 -14 12 -25
34 -11 21 -20 30 -21 21 0 -9 4 -20 10 -23 5 -3 7 -19 3 -35 -3 -17 -1 -30 4
-30 5 0 20 -22 33 -50 13 -27 26 -50 29 -50 19 1 58 56 48 67 -3 2 -8 -5 -12
-16 -8 -25 -21 -27 -29 -5 -9 22 -8 26 5 19 6 -4 17 1 24 11 17 22 19 38 5 29
-5 -3 -10 -4 -10 -1 0 12 45 96 51 96 4 0 11 -28 15 -62 4 -35 9 -54 11 -43 5
32 -11 108 -24 112 -16 6 -65 -91 -57 -111 3 -9 1 -16 -5 -16 -6 0 -26 30 -45
68 -19 37 -35 63 -36 59z m30 -87 c0 8 7 3 16 -13 8 -15 12 -32 9 -37 -3 -5
-1 -19 5 -31 7 -11 9 -23 6 -26 -5 -5 -66 109 -66 124 0 4 7 -2 15 -13 11 -15
15 -16 15 -4z"/>
<path d="M1360 525 c0 -5 5 -17 10 -25 5 -8 10 -10 10 -5 0 6 -5 17 -10 25 -5
8 -10 11 -10 5z"/>
<path d="M1600 525 l0 -105 25 0 25 0 -2 108 -2 107 -3 -102 c-3 -82 -7 -103
-18 -103 -12 0 -15 18 -13 98 l2 97 6 -95 6 -95 2 98 c2 80 -1 97 -13 97 -12
0 -15 -18 -15 -105z"/>
<path d="M1763 604 c36 -41 35 -55 -3 -19 -16 16 -30 25 -30 21 0 -9 57 -58
64 -54 3 2 23 -15 46 -37 l40 -39 -2 69 c-2 64 -2 65 -5 17 -2 -29 -7 -51 -11
-48 -4 2 -5 27 -4 55 3 35 8 51 18 51 11 0 14 -20 14 -96 0 -58 -4 -93 -10
-89 -5 3 -7 11 -4 18 2 7 -14 30 -36 52 -22 21 -40 33 -40 25 0 -9 -8 -6 -25
10 -14 13 -25 21 -25 18 0 -8 128 -132 141 -136 5 -2 9 42 9 102 l0 106 -25 0
c-23 0 -25 -3 -25 -52 l0 -52 -57 54 c-32 30 -45 41 -30 24z m77 -119 c19 -19
32 -35 29 -35 -3 0 -20 16 -39 35 -19 19 -32 35 -29 35 3 0 20 -16 39 -35z"/>
<path d="M2132 528 l-2 -108 25 0 c22 0 25 4 25 35 0 31 3 35 25 35 33 0 75
42 74 72 -1 19 -2 18 -10 -7 -11 -37 -34 -55 -71 -55 -25 0 -28 -3 -28 -35 0
-24 -5 -35 -15 -35 -11 0 -15 21 -18 103 l-3 102 -2 -107z"/>
<path d="M2152 583 c3 -45 5 -48 33 -50 28 -2 28 -1 5 5 -20 6 -26 15 -28 45
-3 37 -3 37 34 37 21 0 47 -8 58 -17 21 -18 21 -18 2 5 -14 17 -30 22 -63 22
l-44 0 3 -47z"/>
<path d="M2425 619 c-11 -16 -1 -19 13 -3 7 8 8 14 3 14 -5 0 -13 -5 -16 -11z"/>
<path d="M2685 562 c38 -39 71 -72 72 -72 2 0 2 28 1 63 l-2 62 -3 -54 -4 -54
-67 64 -67 64 70 -73z"/>
<path d="M2732 583 l1 -48 4 43 c3 28 9 42 19 42 11 0 14 -19 14 -97 l0 -97
-70 69 -70 69 0 -72 c0 -57 3 -72 15 -72 11 0 15 11 13 48 l-1 47 -7 -45 -7
-45 -1 60 -2 59 63 -62 c34 -34 66 -62 70 -62 4 0 7 47 7 105 l0 105 -25 0
c-23 0 -25 -3 -23 -47z"/>
<path d="M2852 528 l-2 -108 70 0 c68 0 70 1 70 25 0 23 -4 25 -44 25 -26 0
-46 5 -49 13 -3 7 -6 5 -6 -5 -1 -15 8 -18 44 -18 33 0 45 -4 45 -15 0 -12
-13 -15 -60 -15 l-59 0 -4 103 -3 102 -2 -107z"/>
<path d="M2870 575 l0 -55 43 2 42 1 -37 4 c-38 4 -38 5 -38 48 l0 44 53 4 52
3 -57 2 -58 2 0 -55z"/>
<path d="M3060 525 l0 -105 60 0 c57 0 60 1 60 25 0 22 -4 25 -32 24 -31 -2
-31 -2 -5 -6 15 -2 27 -11 27 -19 0 -10 -13 -14 -50 -14 l-50 0 2 98 2 97 6
-95 6 -95 2 98 c2 80 -1 97 -13 97 -12 0 -15 -18 -15 -105z"/>
<path d="M3102 538 l-2 -98 33 1 c29 2 30 2 5 6 -27 4 -27 5 -31 96 l-3 92 -2
-97z"/>
<path d="M2200 603 c14 -3 32 -10 40 -16 13 -11 13 -10 1 6 -7 9 -25 16 -40
16 l-26 -2 25 -4z"/>
<path d="M2611 603 c1 -5 36 -39 78 -78 l76 -70 -75 78 c-76 78 -81 83 -79 70z"/>
<path d="M2890 575 c0 -33 2 -35 35 -35 24 0 35 -5 35 -15 0 -11 -12 -15 -45
-15 -45 0 -45 0 -45 -35 l0 -35 48 2 47 1 -42 4 c-38 4 -43 7 -43 29 0 22 4
24 45 24 41 0 45 2 45 25 0 22 -4 25 -35 25 -30 0 -35 3 -35 24 0 20 6 25 33
29 31 4 31 4 -5 5 -37 2 -38 1 -38 -33z"/>
<path d="M1461 574 c0 -11 3 -14 6 -6 3 7 2 16 -1 19 -3 4 -6 -2 -5 -13z"/>
<path d="M2180 583 c0 -5 11 -8 24 -8 13 0 22 3 19 8 -2 4 -13 7 -24 7 -10 0
-19 -3 -19 -7z"/>
<path d="M2426 574 c-9 -24 -7 -31 4 -14 9 13 11 13 20 0 11 -17 13 -10 4 14
-3 9 -10 16 -14 16 -4 0 -11 -7 -14 -16z"/>
<path d="M2928 583 c12 -2 30 -2 40 0 9 3 -1 5 -23 4 -22 0 -30 -2 -17 -4z"/>
<path d="M1295 525 c-3 -31 -5 -59 -2 -61 3 -3 8 20 12 51 3 31 5 59 2 61 -3
3 -8 -20 -12 -51z"/>
<path d="M2392 545 c-17 -37 -14 -45 4 -12 9 16 14 31 11 33 -2 2 -9 -7 -15
-21z"/>
<path d="M2471 565 c0 -5 6 -21 14 -35 8 -14 14 -20 14 -15 0 6 -6 21 -14 35
-8 14 -14 21 -14 15z"/>
<path d="M1445 530 c3 -14 10 -45 15 -70 9 -42 9 -41 4 15 -3 33 -10 65 -16
70 -6 7 -7 1 -3 -15z"/>
<path d="M1472 520 c0 -19 2 -27 5 -17 2 9 2 25 0 35 -3 9 -5 1 -5 -18z"/>
<path d="M2236 533 c-6 -14 -5 -15 5 -6 7 7 10 15 7 18 -3 3 -9 -2 -12 -12z"/>
<path d="M2402 515 c-16 -36 -17 -35 28 -35 45 0 44 -1 28 35 -12 26 -28 34
-28 13 0 -10 -2 -10 -8 0 -6 9 -12 5 -20 -13z m28 -7 c0 17 17 15 24 -3 4 -11
-2 -15 -24 -15 -23 0 -28 4 -23 16 5 13 7 13 14 2 7 -10 9 -10 9 0z"/>
<path d="M2152 478 l1 -43 4 37 c4 33 8 37 36 41 31 4 31 4 -5 5 l-38 2 2 -42z"/>
<path d="M2475 505 c10 -28 16 -63 9 -47 -3 7 -25 12 -54 12 -36 0 -49 -4 -55
-17 -5 -15 -4 -16 6 -5 21 20 87 15 99 -8 10 -19 61 -29 60 -12 -1 16 -39 76
-40 62 0 -10 -6 -6 -16 10 -10 17 -13 18 -9 5z m44 -52 c10 -20 9 -23 -9 -23
-11 0 -20 5 -20 11 0 5 5 7 11 3 8 -4 9 1 4 17 -9 28 -3 24 14 -8z"/>
<path d="M1309 478 c-3 -22 -1 -34 4 -29 5 5 7 21 5 37 -3 27 -4 26 -9 -8z"/>
<path d="M1770 471 c0 -22 -5 -42 -12 -44 -8 -3 -6 -6 5 -6 14 -1 17 8 17 44
0 25 -2 45 -5 45 -3 0 -5 -18 -5 -39z"/>
<path d="M2357 465 c-22 -46 -22 -45 13 -45 17 0 30 5 30 10 0 6 15 11 33 11
31 2 32 2 3 6 -16 3 -33 0 -39 -6 -6 -6 -19 -11 -29 -11 -17 0 -18 2 -3 31 9
17 15 33 13 35 -3 2 -12 -12 -21 -31z"/>
<path d="M1332 470 c0 -14 2 -19 5 -12 2 6 2 18 0 25 -3 6 -5 1 -5 -13z"/>
<path d="M1500 460 l-2 -35 -8 30 -8 30 -1 -28 c-1 -17 5 -30 14 -34 21 -7 22
-4 14 37 l-6 35 -3 -35z"/>
<path d="M1280 438 c0 -13 8 -18 25 -18 14 0 25 4 25 10 0 5 -7 7 -16 3 -9 -3
-20 0 -25 8 -7 11 -9 11 -9 -3z"/>
</g>
</svg>
