<?xml version="1.0" standalone="no"?>
<!DOCTYPE svg PUBLIC "-//W3C//DTD SVG 20010904//EN"
 "http://www.w3.org/TR/2001/REC-SVG-20010904/DTD/svg10.dtd">
<svg version="1.0" xmlns="http://www.w3.org/2000/svg"
 width="508.000000pt" height="135.000000pt" viewBox="0 0 508.000000 135.000000"
 preserveAspectRatio="xMidYMid meet">

<g transform="translate(0.000000,135.000000) scale(0.100000,-0.100000)"
fill="#000000" stroke="none">
<path d="M554 1306 c-232 -53 -418 -220 -491 -441 -36 -110 -38 -265 -5 -375
114 -371 526 -566 892 -423 359 141 519 546 351 888 -75 152 -222 278 -384
331 -101 33 -266 42 -363 20z m271 -61 c275 -57 476 -295 478 -565 1 -141 -33
-245 -118 -360 l-48 -64 -17 52 c-23 69 -61 125 -104 151 -46 29 -130 43 -154
25 -26 -20 -3 -47 47 -56 89 -15 143 -77 157 -178 l6 -45 -55 -33 c-98 -59
-189 -85 -302 -86 -55 0 -125 5 -155 13 -64 16 -166 62 -205 92 -24 19 -26 26
-19 63 14 89 73 160 142 171 65 11 72 15 72 40 0 30 -16 35 -80 23 -94 -17
-158 -77 -186 -176 l-16 -52 -39 47 c-48 57 -94 149 -114 223 -19 72 -19 211
0 284 79 303 398 496 710 431z"/>
<path d="M644 1029 c-54 -13 -117 -68 -139 -121 -10 -25 -18 -73 -18 -114 -1
-63 3 -80 36 -147 41 -82 151 -207 183 -207 53 0 176 137 214 238 23 59 27
159 9 213 -37 110 -158 169 -285 138z m163 -79 c48 -29 67 -73 68 -155 0 -58
-5 -80 -27 -123 -31 -60 -102 -147 -126 -157 -23 -9 -104 81 -142 159 -53 106
-37 223 39 273 45 30 141 32 188 3z"/>
<path d="M540 376 c0 -11 147 -76 172 -76 4 0 45 14 92 31 57 20 86 36 86 46
0 9 -6 13 -14 10 -8 -3 -48 -18 -88 -32 l-74 -26 -83 30 c-96 36 -91 35 -91
17z"/>
<path d="M1651 808 c-5 -13 -36 -93 -69 -178 -33 -85 -63 -163 -67 -172 -6
-14 -2 -18 17 -18 20 0 27 9 45 58 l20 57 77 3 77 3 26 -61 c21 -47 31 -60 48
-60 22 0 19 10 -53 195 -60 157 -79 195 -94 195 -10 0 -22 -10 -27 -22z m62
-130 l26 -78 -61 0 c-44 0 -59 3 -55 13 2 6 15 45 28 85 12 39 26 69 30 65 3
-5 18 -43 32 -85z"/>
<path d="M1900 635 l0 -197 100 4 c81 3 105 8 127 24 112 83 109 271 -5 337
-25 15 -59 21 -128 25 l-94 5 0 -198z m190 137 c91 -45 94 -223 5 -273 -16
-10 -56 -20 -87 -24 l-58 -7 0 161 0 161 53 0 c29 0 67 -8 87 -18z"/>
<path d="M2290 635 c0 -188 1 -195 20 -195 19 0 20 8 22 168 l3 167 34 -90
c97 -257 92 -246 113 -243 16 2 33 37 81 166 l62 163 3 -166 c2 -157 3 -165
22 -165 19 0 20 7 20 196 l0 195 -32 -3 c-32 -3 -33 -5 -92 -161 -33 -86 -63
-154 -67 -150 -3 5 -23 53 -44 108 -84 225 -73 205 -111 205 l-34 0 0 -195z"/>
<path d="M2780 635 c0 -188 1 -195 20 -195 19 0 20 7 20 195 0 188 -1 195 -20
195 -19 0 -20 -7 -20 -195z"/>
<path d="M2930 635 c0 -190 1 -195 20 -195 20 0 21 4 18 159 -2 88 0 157 3
155 4 -2 51 -74 105 -159 88 -138 102 -155 127 -155 l27 0 0 195 c0 188 -1
195 -20 195 -18 0 -20 -8 -22 -162 l-3 -163 -104 163 c-86 135 -107 162 -127
162 l-24 0 0 -195z"/>
<path d="M3480 636 c0 -189 1 -196 20 -196 18 0 20 7 20 75 l0 75 51 0 c66 0
113 23 133 65 20 41 20 78 2 114 -20 38 -58 53 -148 59 l-78 5 0 -197z m164
133 c48 -38 25 -139 -31 -139 -10 0 -35 -3 -55 -6 l-38 -7 0 87 0 86 49 0 c34
0 56 -6 75 -21z"/>
<path d="M3891 808 c-5 -13 -36 -93 -69 -178 -33 -85 -63 -163 -67 -172 -6
-14 -2 -18 17 -18 20 0 27 9 45 58 l20 57 77 3 77 3 26 -61 c21 -47 31 -60 48
-60 22 0 19 10 -53 195 -60 157 -79 195 -94 195 -10 0 -22 -10 -27 -22z m62
-130 l26 -78 -61 0 c-44 0 -59 3 -55 13 2 6 15 45 28 85 12 39 26 69 30 65 3
-5 18 -43 32 -85z"/>
<path d="M4140 636 c0 -189 1 -196 20 -196 18 0 20 8 22 159 l3 160 100 -157
c85 -133 105 -157 128 -160 l27 -3 0 195 c0 189 -1 196 -20 196 -18 0 -20 -8
-22 -160 l-3 -160 -101 158 c-84 130 -106 158 -128 160 l-26 3 0 -195z"/>
<path d="M4550 635 l0 -195 105 0 c98 0 105 1 105 20 0 18 -7 20 -85 20 l-85
0 0 70 0 70 80 0 c73 0 80 2 80 20 0 18 -7 20 -80 20 l-80 0 0 65 0 65 85 0
c78 0 85 2 85 20 0 19 -7 20 -105 20 l-105 0 0 -195z"/>
<path d="M4850 635 l0 -195 105 0 c98 0 105 1 105 20 0 18 -7 20 -85 20 l-85
0 0 175 c0 168 -1 175 -20 175 -19 0 -20 -7 -20 -195z"/>
</g>
</svg>
