<?xml version="1.0" standalone="no"?>
<!DOCTYPE svg PUBLIC "-//W3C//DTD SVG 20010904//EN"
 "http://www.w3.org/TR/2001/REC-SVG-20010904/DTD/svg10.dtd">
<svg version="1.0" xmlns="http://www.w3.org/2000/svg"
 width="640.000000pt" height="640.000000pt" viewBox="0 0 640.000000 640.000000"
 preserveAspectRatio="xMidYMid meet">

<g transform="translate(0.000000,640.000000) scale(0.100000,-0.100000)"
fill="#000000" stroke="none">
<path d="M2990 6164 c-614 -54 -1125 -251 -1615 -623 -150 -113 -421 -389
-542 -551 -382 -512 -579 -1069 -600 -1700 -24 -734 227 -1452 702 -2010 94
-110 307 -317 415 -404 217 -173 563 -369 813 -461 673 -247 1401 -247 2074 0
250 92 596 288 813 461 108 87 321 294 415 404 645 758 865 1796 584 2758 -99
338 -258 652 -482 952 -121 162 -392 438 -542 551 -437 332 -888 523 -1415
600 -130 19 -507 33 -620 23z m565 -259 c383 -51 775 -191 1090 -390 250 -158
550 -431 718 -652 256 -338 431 -720 512 -1123 40 -195 50 -312 49 -555 0
-246 -14 -374 -60 -580 -233 -1046 -1072 -1868 -2121 -2081 -1206 -244 -2429
352 -2982 1453 -138 276 -222 543 -267 858 -22 151 -25 531 -6 685 62 493 247
945 549 1343 107 141 372 403 513 509 430 321 887 497 1420 548 131 12 440 4
585 -15z"/>
<path d="M3090 5451 c-160 -35 -246 -75 -435 -199 -205 -134 -314 -258 -370
-419 -50 -143 -56 -293 -19 -477 15 -75 19 -86 38 -86 29 0 81 -34 102 -65 10
-15 23 -69 30 -126 16 -120 21 -139 39 -139 10 0 13 10 10 33 -2 17 -7 87 -9
153 -3 67 -11 144 -16 172 -10 46 -8 59 19 141 49 146 115 267 204 370 25 29
55 60 67 68 21 15 25 13 73 -34 166 -161 268 -208 532 -248 267 -40 451 -136
554 -290 l27 -40 -8 -159 c-5 -87 -6 -161 -3 -164 17 -18 29 29 32 130 5 126
13 150 59 178 42 27 80 25 109 -4 l24 -24 11 47 c18 74 24 350 10 439 -17 107
-59 228 -109 311 -50 85 -182 226 -267 287 -74 53 -205 116 -289 139 -96 26
-311 29 -415 6z"/>
<path d="M2609 3150 c-85 -63 -191 -176 -254 -269 l-50 -73 -92 -33 c-92 -33
-398 -166 -523 -228 l-65 -32 -38 -88 c-20 -49 -73 -188 -116 -310 -43 -122
-87 -243 -97 -269 l-18 -46 60 -73 c366 -448 908 -746 1497 -824 152 -19 422
-19 574 0 506 67 970 291 1328 641 100 98 216 234 210 245 -3 4 -44 117 -91
251 -96 270 -169 457 -187 474 -25 24 -529 253 -632 288 -45 15 -55 25 -102
94 -28 42 -81 109 -116 147 -65 71 -155 151 -162 144 -2 -3 7 -45 20 -95 94
-364 41 -721 -196 -1316 -65 -164 -79 -189 -79 -144 0 30 -47 194 -100 350
-16 50 -30 99 -30 110 1 12 18 50 39 85 l38 64 -113 176 c-63 97 -116 181
-118 186 -2 6 -5 8 -8 5 -6 -7 -232 -372 -236 -381 -2 -5 15 -35 37 -67 l40
-59 -64 -213 c-35 -116 -66 -214 -68 -217 -6 -6 -114 268 -161 411 -92 273
-120 428 -120 661 -1 186 11 278 53 403 10 28 15 52 12 52 -3 0 -36 -22 -72
-50z"/>
</g>
</svg>
